HIERARCHY
ROOT Hips
{
	OFFSET 0.000000 0.000000 0.000000
	CHANNELS 6 Xposition Yposition Zposition Xrotation Yrotation Zrotation
	JOINT Spine
	{
		OFFSET 0.000000 0.000000 -0.021939
		CHANNELS 6 Xposition Yposition Zposition Xrotation Yrotation Zrotation
		JOINT Spine1
		{
			OFFSET -0.000002 -0.000212 0.018985
			CHANNELS 6 Xposition Yposition Zposition Xrotation Yrotation Zrotation
			JOINT Neck
			{
				OFFSET 0.000002 0.000212 -0.123622
				CHANNELS 6 Xposition Yposition Zposition Xrotation Yrotation Zrotation
				JOINT Head
				{
					OFFSET 0.000000 0.005352 -0.041469
					CHANNELS 6 Xposition Yposition Zposition Xrotation Yrotation Zrotation
					End Site
					{
						OFFSET 0.000000 0.000000 -0.053508
					}
				}
			}
			JOINT LeftShoulder
			{
				OFFSET 0.010682 -0.000955 -0.113500
				CHANNELS 6 Xposition Yposition Zposition Xrotation Yrotation Zrotation
				JOINT LeftArm
				{
					OFFSET 0.030954 0.000000 0.000000
					CHANNELS 6 Xposition Yposition Zposition Xrotation Yrotation Zrotation
					JOINT LeftForeArm
					{
						OFFSET 0.080268 0.000000 0.000000
						CHANNELS 6 Xposition Yposition Zposition Xrotation Yrotation Zrotation
						JOINT LeftHand
						{
							OFFSET 0.071790 0.000000 0.000000
							CHANNELS 6 Xposition Yposition Zposition Xrotation Yrotation Zrotation
							End Site
							{
								OFFSET 0.040131 0.000000 0.000000
							}
						}
					}
				}
			}
			JOINT RightShoulder
			{
				OFFSET -0.010699 -0.000955 -0.113500
				CHANNELS 6 Xposition Yposition Zposition Xrotation Yrotation Zrotation
				JOINT RightArm
				{
					OFFSET -0.030954 0.000000 0.000000
					CHANNELS 6 Xposition Yposition Zposition Xrotation Yrotation Zrotation
					JOINT RightForeArm
					{
						OFFSET -0.080268 0.000000 0.000000
						CHANNELS 6 Xposition Yposition Zposition Xrotation Yrotation Zrotation
						JOINT RightHand
						{
							OFFSET -0.071790 0.000000 0.000000
							CHANNELS 6 Xposition Yposition Zposition Xrotation Yrotation Zrotation
							End Site
							{
								OFFSET -0.040131 0.000000 0.000000
							}
						}
					}
				}
			}
		}
	}
	JOINT LeftUpLeg
	{
		OFFSET 0.026754 0.000000 0.000000
		CHANNELS 6 Xposition Yposition Zposition Xrotation Yrotation Zrotation
		JOINT LeftLeg
		{
			OFFSET 0.000000 -0.000000 0.139251
			CHANNELS 6 Xposition Yposition Zposition Xrotation Yrotation Zrotation
			JOINT LeftFoot
			{
				OFFSET 0.000000 -0.000000 0.111864
				CHANNELS 6 Xposition Yposition Zposition Xrotation Yrotation Zrotation
				JOINT LeftToeBase
				{
					OFFSET 0.000000 0.040131 0.017391
					CHANNELS 6 Xposition Yposition Zposition Xrotation Yrotation Zrotation
					End Site
					{
						OFFSET 0.000000 0.010701 0.000000
					}
				}
			}
		}
	}
	JOINT RightUpLeg
	{
		OFFSET -0.026754 0.000000 0.000000
		CHANNELS 6 Xposition Yposition Zposition Xrotation Yrotation Zrotation
		JOINT RightLeg
		{
			OFFSET 0.000000 -0.000000 0.139251
			CHANNELS 6 Xposition Yposition Zposition Xrotation Yrotation Zrotation
			JOINT RightFoot
			{
				OFFSET 0.000000 -0.000000 0.111864
				CHANNELS 6 Xposition Yposition Zposition Xrotation Yrotation Zrotation
				JOINT RightToeBase
				{
					OFFSET 0.000000 0.040131 0.017391
					CHANNELS 6 Xposition Yposition Zposition Xrotation Yrotation Zrotation
					End Site
					{
						OFFSET 0.000000 0.010701 0.000000
					}
				}
			}
		}
	}
}
MOTION
Frames: 8
Frame Time: 0.041667
0.000672 -0.034962 -0.220065 3.159403 -1.255728 0.546164 0.000000 0.000000 -0.021939 -11.187204 1.722927 4.015065 -0.000002 -0.000212 0.018985 10.717854 -3.957789 1.648214 0.000002 0.000212 -0.123622 12.591108 -3.083292 17.596995 0.000000 0.005352 -0.041469 7.013672 26.036253 19.844669 0.010682 -0.000955 -0.113500 2.084362 -0.423032 17.319726 0.030954 -0.000000 0.000000 61.452517 4.962803 40.915767 0.080268 -0.000000 -0.000000 -71.507552 38.956773 116.918550 0.071790 0.000000 -0.000000 -15.243352 31.162868 12.949750 -0.010699 -0.000955 -0.113500 -1.967673 -2.185912 -7.687770 -0.030954 -0.000000 -0.000000 34.192371 14.478164 -29.701962 -0.080268 0.000000 0.000000 -11.107286 -4.040444 2.439351 -0.071790 0.000000 0.000000 -10.582585 -21.495406 3.217866 0.026754 0.000000 -0.000000 -23.363176 34.244502 16.709296 -0.000000 -0.000000 0.139251 36.318394 -35.413875 -13.500700 0.000000 -0.000000 0.111864 -17.786598 -1.375387 -24.657384 -0.000000 0.040131 0.017391 0.000001 -0.000002 0.000005 -0.026754 0.000000 -0.000000 -19.732469 -33.754348 -2.496531 0.000000 -0.000000 0.139251 40.769618 34.178250 -1.841168 -0.000000 -0.000000 0.111864 -21.640524 -4.992450 31.739469 0.000000 0.040131 0.017391 0.000004 -0.000001 -0.000004 
0.000648 -0.034935 -0.220065 3.163979 -1.261176 0.544733 -0.000000 0.000000 -0.021939 -11.200639 1.727938 4.010799 -0.000002 -0.000212 0.018985 10.732923 -3.962383 1.647517 0.000002 0.000212 -0.123622 12.589928 -3.075509 17.595061 0.000000 0.005352 -0.041469 7.009958 26.020360 19.842446 0.010682 -0.000955 -0.113500 2.082244 -0.420313 17.317019 0.030954 -0.000000 0.000000 61.473232 4.967898 40.919315 0.080268 0.000000 -0.000000 -71.524962 38.963644 116.929697 0.071790 0.000000 -0.000000 -15.230471 31.105586 12.938967 -0.010699 -0.000955 -0.113500 -1.965817 -2.175058 -7.683994 -0.030954 -0.000000 0.000000 34.211082 14.466750 -29.712190 -0.080268 0.000000 0.000000 -11.142692 -4.033876 2.425475 -0.071790 0.000000 -0.000000 -10.619588 -21.558939 3.196448 0.026754 0.000000 -0.000000 -23.361690 34.251152 16.711345 -0.000000 -0.000000 0.139251 36.315125 -35.404811 -13.449439 0.000000 -0.000000 0.111864 -17.791833 -1.394166 -24.708353 0.000000 0.040131 0.017391 -0.000002 -0.000001 0.000002 -0.026754 0.000000 -0.000000 -19.731177 -33.746124 -2.489102 -0.000000 -0.000000 0.139251 40.780621 34.181006 -1.850441 -0.000000 -0.000000 0.111864 -21.647141 -4.999436 31.744441 -0.000000 0.040131 0.017391 -0.000002 0.000001 -0.000000 
0.000621 -0.034920 -0.220071 3.177284 -1.266693 0.536604 -0.000000 0.000000 -0.021939 -11.210773 1.718742 4.011485 -0.000002 -0.000212 0.018985 10.729163 -3.943040 1.646010 0.000002 0.000212 -0.123622 12.590087 -3.067443 17.593307 0.000000 0.005352 -0.041469 7.010183 25.979282 19.837825 0.010682 -0.000955 -0.113500 2.094971 -0.426538 17.306212 0.030954 -0.000000 0.000000 61.497862 4.993471 40.940741 0.080268 0.000000 -0.000000 -71.577206 38.989121 116.933139 0.071790 0.000000 -0.000000 -15.245291 31.068871 12.958405 -0.010699 -0.000955 -0.113500 -1.951570 -2.185885 -7.692540 -0.030954 -0.000000 -0.000000 34.231088 14.463945 -29.722111 -0.080268 0.000000 -0.000000 -11.131792 -4.018302 2.444182 -0.071790 0.000000 0.000000 -10.603399 -21.624177 3.215993 0.026754 -0.000000 0.000000 -23.377601 34.253747 16.720153 -0.000000 -0.000000 0.139251 36.314343 -35.390813 -13.452977 0.000000 -0.000000 0.111864 -17.781778 -1.385348 -24.704072 0.000000 0.040131 0.017391 -0.000002 -0.000003 -0.000000 -0.026754 0.000000 0.000000 -19.737001 -33.733133 -2.480242 0.000000 -0.000000 0.139251 40.786365 34.175688 -1.821663 -0.000000 -0.000000 0.111864 -21.658222 -4.985376 31.728326 -0.000000 0.040131 0.017391 0.000001 -0.000000 -0.000001 
0.000594 -0.034896 -0.220071 3.178724 -1.265942 0.532105 0.000000 0.000000 -0.021939 -11.212780 1.709895 4.005054 -0.000002 -0.000212 0.018985 10.737413 -3.929509 1.643194 0.000002 0.000212 -0.123622 12.576426 -3.076134 17.589689 0.000000 0.005352 -0.041469 7.020955 25.967645 19.831437 0.010682 -0.000955 -0.113500 2.093380 -0.439872 17.305215 0.030954 -0.000000 0.000000 61.496134 4.988342 40.936647 0.080268 0.000000 -0.000000 -71.549906 38.980491 116.935735 0.071790 0.000000 -0.000000 -15.225076 31.068861 12.950647 -0.010699 -0.000955 -0.113500 -1.959212 -2.196418 -7.687586 -0.030954 -0.000000 0.000000 34.354530 14.427211 -29.783685 -0.080268 -0.000000 -0.000000 -11.182260 -4.048051 2.497780 -0.071790 -0.000000 0.000000 -10.664137 -21.571817 3.183362 0.026754 0.000000 0.000000 -23.372410 34.251732 16.718182 -0.000000 -0.000000 0.139251 36.306902 -35.376712 -13.453494 0.000000 -0.000000 0.111864 -17.784418 -1.438385 -24.717567 0.000000 0.040131 0.017391 -0.000001 -0.000001 -0.000001 -0.026754 0.000000 0.000000 -19.734700 -33.725678 -2.476403 0.000000 -0.000000 0.139251 40.797089 34.166543 -1.782675 -0.000000 -0.000000 0.111864 -21.627581 -5.008938 31.707859 -0.000000 0.040131 0.017391 0.000004 0.000002 -0.000004 
0.000573 -0.034881 -0.220074 3.187854 -1.267640 0.535693 -0.000000 0.000000 -0.021939 -11.212364 1.699267 3.994608 -0.000002 -0.000212 0.018985 10.729406 -3.910463 1.637986 0.000002 0.000212 -0.123622 12.569722 -3.081707 17.591473 -0.000000 0.005352 -0.041469 7.031821 25.951083 19.829960 0.010682 -0.000955 -0.113500 2.093160 -0.446252 17.306979 0.030954 -0.000000 -0.000000 61.557490 5.020764 40.957042 0.080268 0.000000 -0.000000 -71.628474 39.012634 116.944996 0.071790 0.000000 -0.000000 -15.253073 31.110108 12.941833 -0.010699 -0.000955 -0.113500 -1.933649 -2.205639 -7.676996 -0.030954 -0.000000 0.000000 34.369307 14.405443 -29.804709 -0.080268 -0.000000 0.000000 -11.186927 -4.036938 2.508048 -0.071790 -0.000000 -0.000000 -10.671301 -21.527143 3.177559 0.026754 0.000000 -0.000000 -23.372853 34.258818 16.719499 -0.000000 -0.000000 0.139251 36.300454 -35.373587 -13.434156 -0.000000 -0.000000 0.111864 -17.786496 -1.421967 -24.727867 0.000000 0.040131 0.017391 -0.000006 -0.000001 -0.000001 -0.026754 0.000000 -0.000000 -19.745430 -33.718568 -2.478712 0.000000 -0.000000 0.139251 40.809612 34.168493 -1.796322 -0.000000 -0.000000 0.111864 -21.676463 -4.986199 31.699366 -0.000000 0.040131 0.017391 -0.000000 0.000001 0.000003 
0.000549 -0.034851 -0.220071 3.189227 -1.260696 0.525747 -0.000000 0.000000 -0.021939 -11.214805 1.686410 3.992802 -0.000002 -0.000212 0.018985 10.732958 -3.901714 1.637091 0.000002 0.000212 -0.123622 12.563266 -3.090463 17.589481 0.000000 0.005352 -0.041469 7.036200 25.943063 19.826736 0.010682 -0.000955 -0.113500 2.092898 -0.453780 17.304047 0.030954 -0.000000 -0.000000 61.547299 5.009291 40.956485 0.080268 0.000000 -0.000000 -71.584440 38.993277 116.942606 0.071790 0.000000 0.000000 -15.245404 31.150758 12.951233 -0.010699 -0.000955 -0.113500 -1.935471 -2.214719 -7.669359 -0.030954 -0.000000 0.000000 34.570005 14.329213 -29.883136 -0.080268 0.000000 0.000000 -11.275855 -4.082701 2.543396 -0.071790 0.000000 0.000000 -10.764610 -21.455019 3.177369 0.026754 0.000000 -0.000000 -23.371412 34.239451 16.706083 -0.000000 -0.000000 0.139251 36.306509 -35.335376 -13.467979 0.000000 -0.000000 0.111864 -17.785080 -1.412445 -24.692274 0.000000 0.040131 0.017391 0.000003 0.000000 0.000003 -0.026754 0.000000 -0.000000 -19.736310 -33.728649 -2.448958 -0.000000 -0.000000 0.139251 40.830833 34.163356 -1.850239 -0.000000 -0.000000 0.111864 -21.640355 -5.037426 31.740535 -0.000000 0.040131 0.017391 0.000000 0.000000 0.000005 
0.000525 -0.034833 -0.220077 3.192565 -1.263504 0.528172 0.000000 0.000000 -0.021939 -11.203184 1.700070 3.990587 -0.000002 -0.000212 0.018985 10.717674 -3.923673 1.637531 0.000002 0.000212 -0.123622 12.561388 -3.083176 17.582917 0.000000 0.005352 -0.041469 7.046359 25.922436 19.816336 0.010682 -0.000955 -0.113500 2.090947 -0.446969 17.291051 0.030954 -0.000000 0.000000 61.600172 5.044117 40.962905 0.080268 0.000000 -0.000000 -71.634689 38.980033 116.966402 0.071790 0.000000 -0.000000 -15.326110 31.255427 13.030801 -0.010699 -0.000955 -0.113500 -1.928548 -2.212699 -7.673910 -0.030954 -0.000000 0.000000 34.559275 14.350736 -29.881979 -0.080268 0.000000 -0.000000 -11.163365 -4.051388 2.560390 -0.071790 0.000000 0.000000 -10.642306 -21.498102 3.222062 0.026754 -0.000000 -0.000000 -23.366991 34.243925 16.702852 -0.000000 -0.000000 0.139251 36.297258 -35.323092 -13.478764 0.000000 -0.000000 0.111864 -17.779437 -1.425476 -24.692616 -0.000000 0.040131 0.017391 0.000006 -0.000001 -0.000002 -0.026754 -0.000000 -0.000000 -19.737324 -33.717345 -2.456583 0.000000 -0.000000 0.139251 40.831639 34.163930 -1.842433 -0.000000 -0.000000 0.111864 -21.692773 -5.010587 31.718613 0.000000 0.040131 0.017391 0.000002 0.000000 0.000011 
0.000507 -0.034818 -0.220083 3.199362 -1.259204 0.529529 -0.000000 0.000000 -0.021939 -11.207611 1.698257 3.983759 -0.000002 -0.000212 0.018985 10.721505 -3.927215 1.635719 0.000002 0.000212 -0.123622 12.556582 -3.084471 17.579695 -0.000000 0.005352 -0.041469 7.042175 25.910179 19.813416 0.010682 -0.000955 -0.113500 2.105589 -0.438440 17.300652 0.030954 -0.000000 0.000000 61.596907 5.038272 40.959350 0.080268 0.000000 -0.000000 -71.661648 39.008040 116.975664 0.071790 0.000000 -0.000000 -15.302007 31.312784 12.993127 -0.010699 -0.000955 -0.113500 -1.926608 -2.215483 -7.672468 -0.030954 -0.000000 -0.000000 34.562075 14.358149 -29.888416 -0.080268 0.000000 0.000000 -11.299157 -4.104904 2.500190 -0.071790 -0.000000 -0.000000 -10.794784 -21.349570 3.151468 0.026754 0.000000 -0.000000 -23.365783 34.238717 16.704105 -0.000000 -0.000000 0.139251 36.288368 -35.313902 -13.484783 0.000000 -0.000000 0.111864 -17.775969 -1.431644 -24.697949 0.000000 0.040131 0.017391 0.000000 -0.000004 0.000001 -0.026754 0.000000 -0.000000 -19.748457 -33.712188 -2.422544 0.000000 -0.000000 0.139251 40.864506 34.127249 -1.858870 -0.000000 -0.000000 0.111864 -21.661334 -5.026134 31.717326 -0.000000 0.040131 0.017391 0.000004 0.000000 0.000003 
